<mxfile host="app.diagrams.net" modified="2021-06-22T12:48:07.340Z" agent="5.0 (Windows NT 10.0; Win64; x64) AppleWebKit/537.36 (KHTML, like Gecko) Chrome/91.0.4472.101 Safari/537.36" etag="5qAQxaIGIiWHBM24RsUp" version="14.8.0" type="github">
  <diagram id="X8XV4JYFVJCBJvEmxfJB" name="第 1 页">
    <mxGraphModel dx="1422" dy="762" grid="1" gridSize="10" guides="1" tooltips="1" connect="1" arrows="1" fold="1" page="1" pageScale="1" pageWidth="827" pageHeight="1169" math="0" shadow="0">
      <root>
        <mxCell id="0" />
        <mxCell id="1" parent="0" />
        <mxCell id="1BGiTIsWGFlXNldc2Lk3-1" value="统一异常处理" style="rounded=0;whiteSpace=wrap;html=1;" vertex="1" parent="1">
          <mxGeometry x="290" y="170" width="140" height="150" as="geometry" />
        </mxCell>
        <mxCell id="1BGiTIsWGFlXNldc2Lk3-2" value="异常&lt;br&gt;告警" style="rounded=0;whiteSpace=wrap;html=1;" vertex="1" parent="1">
          <mxGeometry x="220" y="170" width="50" height="150" as="geometry" />
        </mxCell>
        <mxCell id="1BGiTIsWGFlXNldc2Lk3-3" value="异常&lt;br&gt;统计" style="rounded=0;whiteSpace=wrap;html=1;" vertex="1" parent="1">
          <mxGeometry x="450" y="170" width="50" height="150" as="geometry" />
        </mxCell>
        <mxCell id="1BGiTIsWGFlXNldc2Lk3-4" value="" style="rounded=0;whiteSpace=wrap;html=1;dashed=1;" vertex="1" parent="1">
          <mxGeometry x="220" y="340" width="280" height="110" as="geometry" />
        </mxCell>
        <mxCell id="1BGiTIsWGFlXNldc2Lk3-5" value="统一异常分类" style="rounded=0;whiteSpace=wrap;html=1;" vertex="1" parent="1">
          <mxGeometry x="240" y="380" width="120" height="60" as="geometry" />
        </mxCell>
        <mxCell id="1BGiTIsWGFlXNldc2Lk3-6" value="个性化异常分类" style="rounded=0;whiteSpace=wrap;html=1;" vertex="1" parent="1">
          <mxGeometry x="370" y="380" width="120" height="60" as="geometry" />
        </mxCell>
        <mxCell id="1BGiTIsWGFlXNldc2Lk3-7" value="异常细分" style="text;html=1;strokeColor=none;fillColor=none;align=center;verticalAlign=middle;whiteSpace=wrap;rounded=0;" vertex="1" parent="1">
          <mxGeometry x="314" y="350" width="100" height="20" as="geometry" />
        </mxCell>
      </root>
    </mxGraphModel>
  </diagram>
</mxfile>
